<svg id="humaaans_standing-5" data-name="humaaans/standing-5" xmlns="http://www.w3.org/2000/svg" width="269.574" height="419.714" viewBox="0 0 269.574 419.714">
  <g id="humaaan-10" transform="translate(0)">
    <g id="Head_Front_Short-1" data-name="Head/Front/Short-1" transform="translate(99.374)">
      <g id="Head" transform="translate(3.598 3.792)">
        <path id="Path_2" data-name="Path 2" d="M35.185,35.97c4.806-5.641,8.058-12.554,7.515-20.3C41.134-6.648,10.066-1.739,4.022,9.526S-1.3,49.363,6.507,51.377c3.115.8,9.75-1.164,16.5-5.234L18.772,76.131H43.8Z" transform="translate(0 0)" fill="#b28b67" fill-rule="evenodd"/>
      </g>
      <path id="Hair" d="M74.859,43.489c3.4,1.9,5.814,5.46,8.724,10.13a6.258,6.258,0,0,1,6.66,10.3c1.448,2.044,3.071,4.179,4.93,6.381,6.939-4.163,12.1-16.3,5.474-28.009-5.7-23.462-38-8.9-44.214-12.856C55.075,37.951,59.456,44.816,74.859,43.489Z" transform="translate(-56.2 -28.538)" fill="#1b1b1b" fill-rule="evenodd"/>
    </g>
    <g id="Bottom_Standing_Baggy-Pants" data-name="Bottom/Standing/Baggy-Pants" transform="translate(9.076 170.462)">
      <path id="Leg" d="M238.823,0,187.636,129.556,153.3,239.084H139.748L192.233,0Z" transform="translate(-100.118)" fill="#997659" fill-rule="evenodd"/>
      <path id="Leg-2" data-name="Leg" d="M82.972,0c.545,45.527,8.494,106.821,9.764,109.659q1.271,2.838,87.685,72.178l-9.337,9.992Q69.123,132.378,64.4,124.449C59.686,116.52,44.325,43.555,31.992,0Z" transform="translate(66.04)" fill="#b28b67" fill-rule="evenodd"/>
      <g id="Accessories_Shoe_Flat-Sneaker" data-name="Accessories/Shoe/Flat-Sneaker" transform="matrix(-0.643, 0.766, -0.766, -0.643, 260.498, 186.947)">
        <path id="shoe" d="M1.75,15.224A22.392,22.392,0,0,1,0,8.233,52.33,52.33,0,0,1,.94,0H59.761q2.293,7.58-2.647,8.184T48.907,9.276L21.567,21.464a1.043,1.043,0,0,1-1.377-.528l-.012-.027-1.757-4.263a18.755,18.755,0,0,0-7.432-2.134,16.831,16.831,0,0,0-6.416,1.876h0a2.086,2.086,0,0,1-2.765-1.027Q1.776,15.294,1.75,15.224Z" transform="translate(0 0)" fill="#afacac" fill-rule="evenodd"/>
      </g>
      <g id="Accessories_Shoe_Flat-Sneaker-2" data-name="Accessories/Shoe/Flat-Sneaker" transform="translate(0 227.697)">
        <path id="shoe-2" data-name="shoe" d="M59.781,26.492a22.392,22.392,0,0,1,1.75,6.991,52.33,52.33,0,0,1-.94,8.233H1.77q-2.293-7.58,2.647-8.184t8.207-1.091l27.34-12.188a1.043,1.043,0,0,1,1.377.528l.012.027L43.11,25.07A18.755,18.755,0,0,0,50.542,27.2a16.831,16.831,0,0,0,6.416-1.876h0a2.086,2.086,0,0,1,2.765,1.027Q59.755,26.422,59.781,26.492Z" transform="translate(-1.043 -20.161)" fill="#afacac" fill-rule="evenodd"/>
      </g>
      <path id="Pant" d="M197.574,227.8l-64.455-7L180.888,0h57.731Z" transform="translate(-93.285)" fill="#373b3b" fill-rule="evenodd"/>
      <path id="Pant-2" data-name="Pant" d="M185.426,165.717,143.147,215.76q-66.8-72.954-77.886-95.2T45.324,0h64.994q4.833,86.483,6.516,90.507T185.426,165.717Z" transform="translate(47.703)" fill="#2a3132" fill-rule="evenodd"/>
    </g>
    <g id="Body_Turtle-Neck" data-name="Body/Turtle-Neck" transform="translate(0 53.367)">
      <path id="Skin" d="M77.665,99.393,47.016,129.1A93.035,93.035,0,0,0,25.1,141.62c-1.281,1.536-2.675,4.477,3.351,3.161s12.426-2.432,13.559-.484-2.2,4.931-.112,7.48q2.094,2.549,14.081-16.213l31.871-18.67ZM227.542,72.507,203.85,72.6q27.067,87.128,28.736,91.238c2.5,6.164-2.794,15.553-5.06,20.6,7.379,3.281,6.593-8.869,15.9-4.566,8.5,3.927,14.959,11.043,24.776,5.025,1.207-.74,2.529-3.525-.666-5.7-7.961-5.424-19.433-14.916-20.983-18.04Q243.383,154.757,227.542,72.507Z" transform="translate(-23.979 5.096)" fill="#b28b67" fill-rule="evenodd"/>
      <path id="Clothes-Back" d="M0,118.944l9.181,2.4c19.194-50.281,97.7-78.83,104.023-97.7,2.317-6.92-2.491-10.942.342-12.864L102.2.911C99.943,3.11,95.946-1.623,86.537.62S5.342,57.886,0,118.944Z" transform="translate(141.737 129.319) rotate(175)" fill="#9c9c9c" fill-rule="evenodd"/>
      <path id="Clothes-Front" d="M74.7,12.613c1.079,68.53-38.794,86.011-29.912,113.5,7.334,22.7,77.532,47.107,89.68,24.853,4.917-9.007,7.148-19.9,7.4-31.746q4.657,13.648,7.366,23.5c3.116,11.33,15.2,13.131,15.2,17.5l15.915-4.365c-1.079-5.929,6.423-8.817,4.412-22.065Q171.237,44.753,112.1,4.709l-.417-5.923a4.184,4.184,0,0,0-4.455-3.872L77.779-3.039a4.167,4.167,0,0,0-3.873,4.447s0,0,0,0Z" transform="translate(40.932 5.096)" fill="#b0b0b0" fill-rule="evenodd"/>
    </g>
  </g>
</svg>
